PathFileType	4	(X/Y/Z)	/Users/niels/Desktop/University/Third Semester/Perception and Action/Exam/Gymnastics Motion Tracking/Code for Gym Tracking/Analyzed Data/Webcam_Backflip/id2006_1_baseline_Sports2D/id2006_1_baseline_Sports2D_px_person00.trc
DataRate	CameraRate	NumFrames	NumMarkers	Units	OrigDataRate	OrigDataStartFrame	OrigNumFrames
29.782608695652176	29.782608695652176	7	22	m	29.782608695652176	0	138
Frame#	Time	Hip			RHip			RKnee			RAnkle			RBigToe			RSmallToe			RHeel			LHip			LKnee			LAnkle			LBigToe			LSmallToe			LHeel			Neck			Head			Nose			RShoulder			RElbow			RWrist			LShoulder			LElbow			LWrist		
		X1	Y1	Z1	X2	Y2	Z2	X3	Y3	Z3	X4	Y4	Z4	X5	Y5	Z5	X6	Y6	Z6	X7	Y7	Z7	X8	Y8	Z8	X9	Y9	Z9	X10	Y10	Z10	X11	Y11	Z11	X12	Y12	Z12	X13	Y13	Z13	X14	Y14	Z14	X15	Y15	Z15	X16	Y16	Z16	X17	Y17	Z17	X18	Y18	Z18	X19	Y19	Z19	X20	Y20	Z20	X21	Y21	Z21	X22	Y22	Z22
0	0.0	0.9241955572076574	-0.7237271675572844	0.0	0.9659279960901872	-0.7289440758214597	0.0	1.0024572477826197	-1.055093141508126	0.0	0.9848664550782831	-1.0830490722658057	0.0	1.39367578125	-1.01568359375	0.0	1.3612734375000002	-1.031884765625	0.0	1.1636645507812493	-1.0892622070312499	0.0	0.8772547993571528	-0.7289415935956401	0.0	0.9476847555845686	-1.049885426180519	0.0	0.9356849420465471	-1.0824050641095186	0.0	1.4993579101562495	-0.6945361328124999	0.0	1.5050170898437498	-0.7143432617187501	0.0	1.43427734375	-0.8416748046874999	0.0	0.9685566680539311	-0.2305810868782808	0.0	1.0677034662944644	-0.03750252619280619	0.0	1.072920139554889	-0.16534633590488892	0.0	0.9868234855860981	-0.2775446413624584	0.0	1.0128973893163737	-0.5175944827454367	0.0	1.1485413964604485	-0.6480356444814669	0.0	0.903302006663552	-0.27494425318505333	0.0	0.9085119158314727	-0.5175935326163187	0.0	1.0128814931755303	-0.663714904266428	0.0
1	0.03357664233576642	0.9246770281330856	-0.7261674402824246	0.0	0.9584864102043514	-0.7331430504711941	0.0	0.9987394474773527	-1.0555776100081036	0.0	0.9848664550770192	-1.0830490722665362	0.0	1.39367578125	-1.01568359375	0.0	1.3612734375000002	-1.031884765625	0.0	1.1636645507812493	-1.0892622070312499	0.0	0.8871706040366364	-0.7332236613287576	0.0	0.9507445258638837	-1.049629110602331	0.0	0.9356847012780686	-1.0824050125313602	0.0	1.4993579101562495	-0.6945361328124999	0.0	1.5050170898437498	-0.7143432617187501	0.0	1.43427734375	-0.8416748046874999	0.0	0.9671173393841509	-0.23682080562529445	0.0	1.0627662144311254	-0.04458373754939704	0.0	1.0659781958898746	-0.16794033479603476	0.0	0.972017812766952	-0.2801498979074769	0.0	0.992246047419696	-0.5186965156015121	0.0	1.1437015534495159	-0.6593885919974813	0.0	0.9146788910550503	-0.28110859515874786	0.0	0.9185863697394541	-0.5212892112578621	0.0	1.0202501149782368	-0.6764100504939928	0.0
2	0.06715328467153284	0.9247825238408279	-0.7290804508863256	0.0	0.9511684787856863	-0.7375589296724296	0.0	0.9945036132434774	-1.0558056102146887	0.0	0.9848664550746803	-1.0830490722677102	0.0	1.39367578125	-1.01568359375	0.0	1.3612734375000002	-1.031884765625	0.0	1.1636645507812493	-1.0892622070312499	0.0	0.8963238174640918	-0.7379921440637527	0.0	0.9539794863992541	-1.0493870430368242	0.0	0.9356853090484277	-1.082405058121838	0.0	1.4993579101562495	-0.6945361328124999	0.0	1.5050170898437498	-0.7143432617187501	0.0	1.43427734375	-0.8416748046874999	0.0	0.9659857865299233	-0.2432601250899611	0.0	1.0579891594155018	-0.05210373895482939	0.0	1.0597115922204916	-0.17132694207297033	0.0	0.9586888776427481	-0.2834837666657279	0.0	0.9724100321392616	-0.5201934103100567	0.0	1.137663091034497	-0.6703850506876904	0.0	0.9267404564839817	-0.28777993783857037	0.0	0.9279026233485849	-0.525416677218005	0.0	1.0271839933401083	-0.6890161848898892	0.0
3	0.10072992700729926	0.9242742437904622	-0.7325885108422806	0.0	0.944178352612033	-0.7420894704781825	0.0	0.9898732982986447	-1.0556908861755645	0.0	0.9848664550712658	-1.083049072269191	0.0	1.39367578125	-1.01568359375	0.0	1.3612734375000002	-1.031884765625	0.0	1.1636645507812493	-1.0892622070312499	0.0	0.904045623746189	-0.743237609569676	0.0	0.9572123571946519	-1.0491591469911967	0.0	0.9356875751204424	-1.0824053093010633	0.0	1.4993579101562495	-0.6945361328124999	0.0	1.5050170898437498	-0.7143432617187501	0.0	1.43427734375	-0.8416748046874999	0.0	0.9653260504912272	-0.24997799766686205	0.0	1.0536663497820447	-0.06030158597866384	0.0	1.0545753307134482	-0.17588910768880614	0.0	0.9478141620208211	-0.2878963071684202	0.0	0.9542348513181534	-0.5221521012519731	0.0	1.1295865035263493	-0.680856480682707	0.0	0.9397959128079404	-0.2951270814862151	0.0	0.9358746633226354	-0.530039199600762	0.0	1.0332162011513821	-0.701252592908945	0.0
4	0.13430656934306567	0.9231007321975914	-0.7362704321802735	0.0	0.9377282720602605	-0.7461657837494364	0.0	0.9855398184061457	-1.0553886948549833	0.0	0.9848664550674776	-1.0830490722704476	0.0	1.39367578125	-1.01568359375	0.0	1.3612734375000002	-1.031884765625	0.0	1.1636645507812493	-1.0892622070312499	0.0	0.9098383992857851	-0.7482892210469375	0.0	0.9598668586220196	-1.0489886589576385	0.0	0.9356923771991654	-1.0824058943338744	0.0	1.4993579101562495	-0.6945361328124999	0.0	1.5050170898437498	-0.7143432617187501	0.0	1.43427734375	-0.8416748046874999	0.0	0.9651387078771855	-0.25688239056643414	0.0	1.0501529093080761	-0.06910013946288496	0.0	1.0507218514613665	-0.18157444929440178	0.0	0.9396435225350149	-0.29321218917706177	0.0	0.93845991308641	-0.5242675409654401	0.0	1.119175617676308	-0.6907018496937886	0.0	0.9534806904130024	-0.30293786114347215	0.0	0.9421094106454788	-0.5347612792010416	0.0	1.0379257639318222	-0.7123770262321342	0.0
5	0.16788321167883208	0.921351704472472	-0.7393268548503491	0.0	0.931932059169112	-0.7490100553765955	0.0	0.9821668754569357	-1.0551800377794742	0.0	0.98486645506526	-1.0830490722703394	0.0	1.39367578125	-1.01568359375	0.0	1.3612734375000002	-1.031884765625	0.0	1.1636645507812493	-1.0892622070312499	0.0	0.9135023543485469	-0.7521855515039292	0.0	0.9613456665284599	-1.0490208513244292	0.0	0.9357001838800315	-1.0824069057201509	0.0	1.4993579101562495	-0.6945361328124999	0.0	1.5050170898437498	-0.7143432617187501	0.0	1.43427734375	-0.8416748046874999	0.0	0.9653234177276694	-0.26372034578988884	0.0	1.0476478715207194	-0.0781156958893002	0.0	1.0480317497602807	-0.18808166604114782	0.0	0.9338424046431822	-0.2988661358649654	0.0	0.9254059318470627	-0.5260351354029431	0.0	1.1065743531592427	-0.6996311573068871	0.0	0.9665603618768976	-0.3107872055877372	0.0	0.9464496149410188	-0.5389001810722835	0.0	1.0409788060610423	-0.7213375126785426	0.0
6	0.2014598540145985	0.9191993971922433	-0.7409947414341551	0.0	0.9268615736626957	-0.7500605487108799	0.0	0.9799983270375167	-1.055197573569081	0.0	0.984866455068297	-1.0830490722669959	0.0	1.39367578125	-1.01568359375	0.0	1.3612734375000002	-1.031884765625	0.0	1.1636645507812493	-1.0892622070312499	0.0	0.9152322846402559	-0.7542300293437205	0.0	0.961430690326355	-1.0493374536318925	0.0	0.9357101664123558	-1.082408288859136	0.0	1.4993579101562495	-0.6945361328124999	0.0	1.5050170898437498	-0.7143432617187501	0.0	1.43427734375	-0.8416748046874999	0.0	0.9657277896986808	-0.2701074453906125	0.0	1.0460951427708283	-0.08678275422134366	0.0	1.0462172901553763	-0.19494856453972179	0.0	0.9298899907091447	-0.3041626633955293	0.0	0.9149297801130635	-0.5270120530501478	0.0	1.0923019284698428	-0.7072181150414648	0.0	0.9773936400630933	-0.31815528481779976	0.0	0.9490270734248439	-0.5417590739257213	0.0	1.0421848770140127	-0.7273766952042146	0.0
